<svg id="Layer_1" data-name="Layer 1" xmlns="http://www.w3.org/2000/svg" viewBox="0 0 1869.82 1925.57"><path d="M1333.34,1332.18V1527h194.84v57.43c-46,21-92,30.22-140.6,30.22-155,0-260.15-107.74-260.15-262.78,0-159,105.13-262.78,262.79-262.78,88,0,160.3,32.85,223.38,102.49l165.54-149.79c-90.67-109-229.93-168.18-402.05-168.18-53.91,0-105,6.51-152.7,18.79,132.06-157.73,733.69-770.62,733.69-770.62L1084.52,995.35l.32-.06L891.38,1188.75c-.09.25-.16.5-.25.75L93.85,1986.78S723.72,1368.91,876,1244.12a510.65,510.65,0,0,0-11.29,107.77c0,279.87,214.16,478.27,507.15,478.27,134,0,279.88-40.74,386.29-117v-381H1333.34Z" transform="translate(-89.09 -61.22)"/><path d="M882.77,1136.27l1.47-.38,231.51-231.52h0L1958.91,61.22S1246.23,759.7,1119,854.08c-7-330.65-521.45-228-521.45-367.63,0-46,39.42-82.78,148.47-82.78,80.15,0,166.87,23.65,254.91,70.95l80.13-193.14c-90.65-52.55-214.16-80.15-333.72-80.15C474,201.33,340,335.35,340,499.59,340,841.2,863,734.77,863,880.62c0,44.67-42.05,74.89-149.78,74.89-106.43,0-222-36.8-303.51-90.66l-85.41,191.83c86.73,60.43,236.51,101.17,387.6,101.17,42.14,0,80.9-3.3,116.43-9.38C713.48,1292.74,89.09,1930,89.09,1930Z" transform="translate(-89.09 -61.22)"/></svg>